<?xml version="1.0" encoding="utf-8"?>
<!-- Generator: Adobe Illustrator 23.0.3, SVG Export Plug-In . SVG Version: 6.00 Build 0)  -->
<svg version="1.1" id="Layer_1" xmlns="http://www.w3.org/2000/svg" xmlns:xlink="http://www.w3.org/1999/xlink" x="0px" y="0px"
	 viewBox="0 0 910.2 910.2" style="enable-background:new 0 0 910.2 910.2;" xml:space="preserve">
<style type="text/css">
	.st0{fill:#9AD3EF;}
	.st1{fill:url(#SVGID_1_);}
</style>
<g>
	<circle class="st0" cx="455.1" cy="445.5" r="402"/>
	<path class="st0" d="M291.1,805l-150.7,59.1c-28,11-56.1-15.8-46.4-44.3l52.7-154.4c8.4-24.6,39.5-32,58.1-13.9l98,95.2
		C321.3,764.6,315,795.6,291.1,805z"/>
</g>
<linearGradient id="SVGID_1_" gradientUnits="userSpaceOnUse" x1="203.1188" y1="455.1214" x2="707.0988" y2="455.1214" gradientTransform="matrix(1 0 0 -1 0 910.2222)">
	<stop  offset="0" style="stop-color:#8A8A8A"/>
	<stop  offset="1" style="stop-color:#0F0F0F"/>
</linearGradient>
<path class="st1" d="M704.9,694.2L431,420.3c11-15.7,12.2-38.8,3.2-66.2c-9.7-29.2-30-60.4-57.3-87.7
	c-27.3-27.3-58.4-47.6-87.7-57.3c-31-10.2-56.6-7.4-72,8.1c-15.4,15.4-18.3,41-8.1,72c9.7,29.2,30,60.4,57.3,87.7
	s58.4,47.6,87.7,57.3c12.2,4,23.6,6,33.8,6c12.7,0,23.7-3.1,32.4-9.2l273.9,273.9c1.5,1.5,3.4,2.2,5.4,2.2c1.9,0,3.9-0.7,5.4-2.2
	C707.8,701.9,707.8,697.1,704.9,694.2z M265.8,240c23,13.6,50,35.4,76.1,61.4c26,26,47.8,53,61.4,76.1c7.4,12.5,10.9,21.4,12.3,27.4
	L238.4,227.7C244.5,229.2,253.3,232.7,265.8,240z M404.9,415.6c-6-1.4-14.9-4.9-27.4-12.3c-23-13.6-50-35.4-76.1-61.4
	c-26-26-47.8-53-61.4-76.1c-7.4-12.5-10.9-21.4-12.3-27.4L404.9,415.6z M366.2,277.1c36.4,36.4,58.3,79.1,58.9,109.4
	c-2.3-5.2-5.2-10.7-8.7-16.7c-14.2-24.1-36.8-52.2-63.8-79.1c-26.9-26.9-55-49.6-79.1-63.8c-5.9-3.5-11.4-6.4-16.5-8.6
	c8.2,0.2,17.5,1.9,27.5,5.2C311.5,232.5,340.5,251.5,366.2,277.1z M277.1,366.2c-25.7-25.7-44.7-54.7-53.6-81.7
	c-3.3-9.9-5-19.2-5.2-27.4c2.3,5.1,5.2,10.6,8.6,16.5c14.2,24.1,36.8,52.2,63.8,79.1c26.9,26.9,55,49.5,79.1,63.8
	c5.9,3.5,11.4,6.4,16.5,8.6c-8.2-0.2-17.5-1.9-27.5-5.2C331.8,410.9,302.8,391.8,277.1,366.2z"/>
</svg>
